<?xml version="1.0" encoding="UTF-8"?>
<svg id="layer_1" data-name="Layer 1" xmlns="http://www.w3.org/2000/svg" viewBox="0 0 827.283 479.835">
  <path d="M475.841,225.413c-12.345,17.915-25.925,33.359-42.587,47.423-9.646,8.142-19.929,15.022-31.03,21.02-19.682,10.636-45.458,18.96-67.578,20.833l-3.468.294c-1.603.136-3.235.405-4.917.41l-60.305.175-57.361-.086-37.869.025-10.268-.144-.009-54.901c0-.162.425-.701.612-.695l7.432.267,58.785-.025,16.187-.421,7.487-.39,12.98-1.212c13.661-1.275,41.891-6.812,54.733-11.593l16.117-6.001c6.522-2.428,12.818-5.534,19.019-8.765,40.196-20.944,70.326-56.078,92.345-95.087l6.618-11.725,13.036-22.947L524.185,0l8.612,14.82,12.345,20.616,9.214,15.079,11.881,20.426,23.616,39.714,12.17,20.014,6.813,11.572,11.212,18.766,18.864,31.695,9.275,15.205,34.004,57.009,29.814,49.685c.001.336-.032.703-.085.847l-35.343.032-29.986.013-16.183-.035c-.672-.001-1.264-.261-1.64-.907l-44.61-76.716-21.883-37.74-24.536-42.594-5.484-9.292-5.26-9.819c-.15-.28-.638-.893-.817-1.127-.183-.238-.625.475-.823.856l-6.171,11.909-15.032,27.561-11.258,20.645c-5.18,9.5-10.911,18.266-17.054,27.18Z" fill="#fff"/>
  <path d="M388.833,176.949c-6.979,7.463-14.182,13.862-21.939,20.13-1.72,1.39-3.382,2.665-5.433,3.771,6.417-10.033,11.456-20.334,13.833-31.903,2.763-13.451,1.03-30.373-5.938-42.187-2.794-4.736-5.718-9.074-9.391-13.141-9.232-10.223-21.099-17.159-34.418-20.617-7.271-1.893-14.183-2.879-21.779-3.263l-79.582.026.006,146.598-63.904.038.09-27.216.075-72.436-.103-81.797-.105-36.242c-.002-.806.248-1.445,1.095-1.447l52.887-.1,89.142-.024c2.074,0,3.773.142,5.695.305l4.155.353,4.135.384,2.741.322c3.177.374,6.166.931,9.34,1.568,8.471,1.701,16.523,3.798,24.627,6.881,13.176,5.014,25.495,11.416,36.851,19.794,9.962,7.35,21.712,18.829,28.588,29.097,5.859,8.749,10.736,19.01,14.259,29.061-1.153,4.196-2.543,7.936-4.462,11.769l-7.165,14.309c-3.051,6.094-6.653,11.535-10.44,17.273-6.787,10.281-14.305,19.547-22.857,28.691Z" fill="#fff"/>
  <path d="M534.208,316.475l-42.103-.006-20.654.036-8.569-.093,6.061-9.51,9.225-15.956,12.239-21.067,22.927-40.022,8.839-15.556,3.913-7.011c.051-.102.615-.083.854.315l16.051,26.704,4.29,6.811,10.889,18.713,10.366,17.04,10.731,18.167,12.477,20.857c.106.177.481.741.309.772s-.823.178-1.004.174l-9.514-.201-39.546-.115-7.78-.053Z" fill="#fff"/>
  <path d="M660.825,418.931c6.365,14.235,4.884,32.555-5.591,44.272-9.278,10.379-23.94,14.798-37.621,14.85l-37.038.139-.145-17.457-.009-49.807.132-13.854c.004-.461.841-.746,1.165-.745l14.608.04,22.109-.016,6.392.188c11.3.333,23.687,5.688,31.18,14.464,2.029,2.376,3.521,5.023,4.818,7.925ZM626.603,462.107c7.992-1.721,14.571-7.092,17.362-14.628,2.101-5.673,2.326-15.486-.252-21.156-1.117-2.457-2.394-4.746-4.167-6.708-5.825-6.45-12.1-8.03-20.491-8.445-4.03-.199-7.974-.079-11.991.015l-8.703.202.062,9.683.117,29.697-.092,8.256-.033,4.265h15.549c4.223.001,8.284-.243,12.639-1.18Z" fill="#fff"/>
  <path d="M81.073,421.135c3.969,10.318,3.608,21.626-.501,31.803-3.004,7.44-8.087,13.476-14.855,17.755-2.157,1.364-4.26,2.602-6.655,3.481-6.29,2.308-12.958,3.47-19.694,3.921l-23.156.131-16.212-.09.022-54.293-.01-27.522,14.686.016,4.519.003,22.474-.009c1.365,0,2.8.224,4.159.37,15.439,1.654,29.499,9.551,35.223,24.434ZM62.147,448.808c2.25-5.321,2.732-10.984,1.986-16.787-1.085-8.439-6.89-16.119-14.897-18.808-7.659-2.572-15.158-2.203-23.065-2.014l-8.471.203.005,20.673-.011,31.05,9.013.084c4.281.04,8.429.171,12.66-.161,9.966-.783,18.696-4.582,22.779-14.239Z" fill="#fff"/>
  <path d="M445.059,478.448l-8.104-.106-12.39-.129-7.276-17.941c-.345-.17-1.181-.362-1.727-.362l-39.169.015-4.389,10.2-3.404,8.118-16.771.006c-.978,0-1.939-.094-3.024-.183l9.342-21.062,16.771-37.018,10.77-23.899,21.578.021c.406.608.789,1.262,1.118,1.896l6.003,13.199,2.616,5.635,2.51,5.377,2.739,5.868,2.388,5.117,2.713,5.859,8.157,18.442,7.271,15.507,2.278,5.44ZM389.221,446.16h14.262s8.212-.166,8.212-.166l-9.404-21.177-5.901-13.388-2.753,6.302-5.393,12.5-3.85,9.313-3.066,6.463,7.893.154Z" fill="#fff"/>
  <path d="M529.549,396.432l18.357-.01.034,47.589-.501,5.889c-.395,4.644-1.708,9.127-3.973,13.241-5.28,9.59-15.295,13.777-25.553,15.828-7.828,1.565-19.047.96-26.746-1.429-9.025-2.8-17.053-8.894-20.771-17.754-1.974-4.705-3.207-9.6-3.208-14.792l-.011-39.38.216-8.757c.031-1.24,2.491-.487,4.78-.489l12.12-.013c.423,0,1.009.702,1.031,1.129l.32,6.095.09,17.609-.036,18.357c-.016,8.295,2.176,17.755,10.048,21.838,6.205,3.218,15.343,3.765,21.821,1.48,8.871-3.129,11.476-11.617,11.737-20.328l.138-20.744.108-25.359Z" fill="#fff"/>
  <path d="M226.664,433.009l-.014,14.274-2.337-.013-16.855.031-11.265-.033-9.663-.043-.071,31.025-17.393.011c-.306,0-.967-.379-.984-.452l-.012-21.822-.026-59.665,53.22-.017,10.191.143.149,6.532.057,8.105-20.842.036-24.125-.079.025,21.582,32.323.025,7.621.359Z" fill="#fff"/>
  <path d="M299.047,432.599l23.707-.014.192,14.586-25.091.045-7.899.079-8.212.14-.027,30.686-4.896.144-13.157-.022-.014-46.165.174-25.421.257-10.337,21.394.048,41.957.059c.083,1.701.163,3.271.144,4.891l-.116,9.75-39.279.118-6.433.179.118,6.445-.002,9.35-.076,5.052,17.259.387Z" fill="#fff"/>
  <polygon points="794.529 474.086 794.579 478.258 776.023 478.253 776.039 411.355 766.201 411.319 757.58 411.33 750.463 411.236 745.644 411.088 745.693 396.306 821.627 396.328 827.283 396.45 827.267 411.089 814.719 411.215 794.37 411.33 794.399 453.012 794.529 474.086" fill="#fff"/>
  <rect x="695.952" y="396.301" width="18.702" height="82.158" transform="translate(-1.205 1.949) rotate(-.158)" fill="#fff"/>
  <rect x="82.709" y="428.082" width="82.397" height="18.475" transform="translate(-313.578 560.637) rotate(-89.923)" fill="#fff"/>
</svg>
