<?xml version="1.0" encoding="UTF-8"?>
<svg id="layer_1" data-name="Layer 1" xmlns="http://www.w3.org/2000/svg" viewBox="0 0 551.762 316.844">
  <path d="M315.597,225.413c-12.345,17.915-25.925,33.359-42.587,47.423-9.646,8.142-19.929,15.022-31.03,21.02-19.682,10.636-45.458,18.96-67.578,20.833l-3.468.294c-1.603.136-3.235.405-4.917.41l-60.305.175-57.361-.086-37.869.025-10.268-.144-.009-54.901c0-.162.425-.701.612-.695l7.432.267,58.785-.025,16.187-.421,7.487-.39,12.98-1.212c13.661-1.275,41.891-6.812,54.733-11.593l16.117-6.001c6.522-2.428,12.818-5.534,19.019-8.765,40.196-20.944,70.326-56.078,92.345-95.087l6.618-11.725,13.036-22.947L363.941,0l8.612,14.82,12.345,20.616,9.214,15.079,11.881,20.426,23.616,39.714,12.17,20.014,6.813,11.572,11.212,18.766,18.864,31.695,9.275,15.205,34.004,57.009,29.814,49.685c.001.336-.032.703-.085.847l-35.343.032-29.986.013-16.183-.035c-.672-.001-1.264-.261-1.64-.907l-44.61-76.716-21.883-37.74-24.536-42.594-5.484-9.292-5.26-9.819c-.15-.28-.638-.893-.817-1.127-.183-.238-.625.475-.823.856l-6.171,11.909-15.032,27.561-11.258,20.645c-5.18,9.5-10.911,18.266-17.054,27.18Z" fill="#fff"/>
  <path d="M228.589,176.949c-6.979,7.463-14.182,13.862-21.939,20.13-1.72,1.39-3.382,2.665-5.433,3.771,6.417-10.033,11.456-20.334,13.833-31.903,2.763-13.451,1.03-30.373-5.938-42.187-2.794-4.736-5.718-9.074-9.391-13.141-9.232-10.223-21.099-17.159-34.418-20.617-7.271-1.893-14.183-2.879-21.779-3.263l-79.582.026.006,146.598-63.904.038.09-27.216.075-72.436L.105,54.952,0,18.71c-.002-.806.248-1.445,1.095-1.447l52.887-.1,89.142-.024c2.074,0,3.773.142,5.695.305l4.155.353,4.135.384,2.741.322c3.177.374,6.166.931,9.34,1.568,8.471,1.701,16.523,3.798,24.627,6.881,13.176,5.014,25.495,11.416,36.851,19.794,9.962,7.35,21.712,18.829,28.588,29.097,5.859,8.749,10.736,19.01,14.259,29.061-1.153,4.196-2.543,7.936-4.462,11.769l-7.165,14.309c-3.051,6.094-6.653,11.535-10.44,17.273-6.787,10.281-14.305,19.547-22.857,28.691Z" fill="#fff"/>
  <path d="M373.964,316.475l-42.103-.006-20.654.036-8.569-.093,6.061-9.51,9.225-15.956,12.239-21.067,22.927-40.022,8.839-15.556,3.913-7.011c.051-.102.615-.083.854.315l16.051,26.704,4.29,6.811,10.889,18.713,10.366,17.04,10.731,18.167,12.477,20.857c.106.177.481.741.309.772s-.823.178-1.004.174l-9.514-.201-39.546-.115-7.78-.053Z" fill="#fff"/>
</svg>
